<svg width="139" height="64" viewBox="0 0 139 64" fill="none" xmlns="http://www.w3.org/2000/svg">
<path fill-rule="evenodd" clip-rule="evenodd" d="M2.03302 63.6002H2.04557L2.05811 63.5998C4.59906 63.5201 7.12491 63.4409 9.57623 63.4409C10.9901 63.4409 35.3391 63.4608 59.5621 63.4807L67.2803 63.4871C88.6606 63.5046 107.977 63.5205 108.788 63.5205C125.363 63.5205 138.6 50.5719 138.6 31.5248C138.6 13.7012 125.608 0.00693632 109.876 0.00693632C108.388 0.00693632 83.748 0.0268499 59.2085 0.0467625L53.4883 0.0514051C31.0034 0.0696563 10.1439 0.0865881 9.14105 0.0865881C6.53862 0.0865881 4.31197 0.0865089 2.0175 0.00841749C1.40024 -0.0526918 0.876186 0.225841 0.532703 0.619433C0.189101 1.01316 0 1.54185 0 2.08132C0 2.99757 0.637948 4.04254 1.76107 4.07527C2.49731 4.16593 3.00813 4.36399 3.37381 4.61912C3.74011 4.87469 4.00894 5.22093 4.20886 5.68396C4.63164 6.66314 4.71451 8.069 4.71451 9.96657V53.322C4.71451 55.4038 4.57862 56.8304 4.14382 57.7769C3.93783 58.2254 3.67074 58.5496 3.32127 58.7867C2.96536 59.0281 2.47757 59.2103 1.78663 59.2986L1.77917 59.2996C0.772917 59.4377 0 60.3605 0 61.4462C0 62.6441 0.899145 63.6002 2.03302 63.6002ZM115.466 54.014C116.276 54.0075 116.776 53.6384 117.075 53.1876C117.378 52.7315 117.476 52.1889 117.467 51.8482C117.458 51.5048 117.331 50.9809 117.002 50.547C116.676 50.1177 116.152 49.7728 115.334 49.7794C114.512 49.7859 114.013 50.1385 113.717 50.5711C113.418 51.0091 113.324 51.5356 113.333 51.8838C113.342 52.2208 113.47 52.7624 113.8 53.2146C114.126 53.6622 114.651 54.0238 115.466 54.014ZM116.622 52.698L116.535 53.2557C116.526 53.3271 116.486 53.386 116.437 53.4307C116.388 53.4761 116.324 53.5126 116.254 53.5397L116.249 53.5415C116.013 53.619 115.727 53.6758 115.457 53.6758C114.793 53.6758 114.345 53.3984 114.067 53.029C113.791 52.6637 113.684 52.214 113.684 51.866C113.684 51.4998 113.799 51.0707 114.079 50.7312C114.361 50.3885 114.806 50.1448 115.448 50.1448C115.804 50.1448 116.045 50.2093 116.31 50.3147C116.373 50.3376 116.433 50.3685 116.479 50.4096C116.525 50.451 116.564 50.5091 116.565 50.5822L116.593 51.1099C116.593 51.2206 116.487 51.2644 116.408 51.2644C116.314 51.2644 116.243 51.2152 116.218 51.1428L116.215 51.1344L116.214 51.1256C116.192 50.9891 116.137 50.8378 116.019 50.7212C115.903 50.6066 115.716 50.5151 115.41 50.5151C114.92 50.5151 114.646 50.7146 114.489 50.9661C114.328 51.2251 114.283 51.5508 114.283 51.8047C114.283 52.0118 114.347 52.3916 114.542 52.7162C114.735 53.0357 115.052 53.2987 115.571 53.2987C115.82 53.2987 115.967 53.2013 116.06 53.0792C116.157 52.9519 116.201 52.7904 116.224 52.6595L116.226 52.6465L116.231 52.6345C116.248 52.5986 116.279 52.5733 116.306 52.558C116.336 52.5411 116.374 52.529 116.417 52.529C116.463 52.529 116.509 52.5381 116.547 52.5619C116.587 52.5868 116.622 52.631 116.622 52.6903V52.698ZM117.454 50.2693C117.852 50.8038 118 51.4419 118 51.866C118 52.2931 117.852 52.9477 117.455 53.4982C117.054 54.0532 116.4 54.5001 115.4 54.5001C114.4 54.5001 113.746 54.0514 113.345 53.4955C112.948 52.9444 112.8 52.2898 112.8 51.866C112.8 51.4386 112.948 50.8004 113.346 50.2667C113.748 49.7284 114.402 49.3001 115.4 49.3001C116.398 49.3001 117.052 49.7303 117.454 50.2693ZM11.8 53.9467C11.8 54.4399 12.2886 54.8 12.8543 54.8L12.8625 54.7999C14.4752 54.7621 16.0831 54.7245 17.6443 54.7245C18.5406 54.7245 19.7136 54.7339 20.8077 54.7434L21.1677 54.7465L21.1704 54.7465C22.1218 54.7548 22.9804 54.7623 23.4935 54.7623C28.6545 54.7623 33.3281 53.6201 36.716 51.3452C40.1094 49.0666 42.1877 45.6679 42.1877 41.2C42.1877 37.0126 40.142 33.6731 36.858 31.3826C33.5775 29.0946 29.0773 27.864 24.1844 27.864C23.2387 27.864 21.8786 27.8734 20.5836 27.8828L20.2828 27.885L20.2823 27.885C19.0991 27.8937 18.0035 27.9017 17.3679 27.9017C15.713 27.9017 14.2925 27.9017 12.8275 27.8643C12.206 27.814 11.8 28.2613 11.8 28.6795C11.8 29.0652 12.1558 29.4495 12.6996 29.4572C13.2033 29.5023 13.572 29.6045 13.8461 29.747C14.1201 29.8896 14.315 30.0805 14.4552 30.3226C14.7439 30.8212 14.7938 31.5198 14.7938 32.413V50.1001C14.7938 51.0834 14.7099 51.7917 14.4119 52.2755C14.267 52.5107 14.0725 52.6902 13.8102 52.8229C13.5451 52.9569 13.1961 53.0506 12.7294 53.0951L12.727 53.0953C12.2228 53.1469 11.8 53.5013 11.8 53.9467ZM61.9301 53.4393C61.7295 53.3057 61.4518 53.2227 61.1229 53.1829L61.1143 53.1819C60.5739 53.1302 60.2028 53.0247 59.9451 52.8917C59.6914 52.7608 59.5341 52.5965 59.4335 52.4059C59.3306 52.2111 59.2847 51.9846 59.2667 51.7304C59.2536 51.5451 59.2557 51.3568 59.2579 51.1608V51.1608V51.1607V51.1605C59.2588 51.0847 59.2597 51.0077 59.2597 50.9293V43.5035C59.2597 42.6881 59.0623 41.2562 58.2505 40.0198C57.4306 38.7711 55.9734 37.713 53.4867 37.713C50.6667 37.713 48.5629 39.3761 47.1922 40.6026C47.1896 40.6034 47.1861 40.6043 47.1815 40.6053C47.163 40.6092 47.1405 40.6107 47.1202 40.6093V30.934C47.1202 29.7505 47.1791 28.7818 47.2971 27.6704C47.3437 27.4962 47.2474 27.3356 47.124 27.2207C46.9926 27.0982 46.8025 26.9977 46.5881 26.9328C46.3346 26.856 45.923 26.7679 45.5538 26.812C43.8282 26.9992 41.5732 27.8121 40.4037 28.5205C40.2203 28.6316 40.09 28.7662 40.033 28.9183C39.975 29.0728 39.9994 29.2285 40.0896 29.3651C40.2653 29.6312 40.6658 29.8002 41.138 29.841L41.1492 29.8416C42.4412 29.9112 42.975 30.2341 43.2219 30.6061C43.3525 30.8029 43.4165 31.0327 43.4457 31.2891C43.4703 31.5049 43.4693 31.7271 43.4684 31.9566C43.4682 32.0018 43.468 32.0474 43.468 32.0932V50.9293L43.468 50.9963C43.4684 51.4955 43.4688 51.9817 43.2572 52.378C43.1506 52.5776 42.9912 52.7502 42.7486 52.8862C42.5042 53.0232 42.1605 53.1311 41.6703 53.182L41.66 53.1834C41.3499 53.2252 41.0826 53.3224 40.8982 53.4713C40.7101 53.6232 40.6171 53.8237 40.6601 54.0387C40.705 54.3012 40.9224 54.4958 41.1983 54.6183C41.4729 54.7403 41.8208 54.8002 42.1845 54.8002L42.1968 54.7997C43.2061 54.7638 44.3359 54.7637 45.3539 54.7637C46.3128 54.7637 47.6211 54.764 48.57 54.8H48.5831C49.3685 54.8 49.9605 54.5135 50.0477 54.0384L50.0504 54.0234V54.0083C50.0504 53.7886 49.9462 53.5938 49.7353 53.4469C49.5329 53.3059 49.2522 53.2226 48.9237 53.1828L48.9178 53.1822C48.4252 53.131 48.0804 53.0266 47.8358 52.8943C47.5938 52.7634 47.4358 52.5975 47.3302 52.4038C47.1194 52.0168 47.1198 51.5321 47.1202 50.9995V50.9994L47.1202 50.9293V43.3224C47.1202 43.0834 47.2874 42.7783 47.6172 42.4387C47.9416 42.1046 48.3987 41.7624 48.919 41.4538C49.4386 41.1457 50.013 40.876 50.5665 40.6841C51.124 40.4908 51.6413 40.3831 52.0515 40.3831C53.0854 40.3831 53.8022 40.6197 54.3089 40.979C54.8209 41.3421 55.1428 41.8481 55.3403 42.418C55.6671 43.361 55.6376 44.4199 55.6164 45.1837V45.1839V45.184V45.1841C55.6117 45.352 55.6074 45.5057 55.6074 45.6407V50.9293L55.6076 51.0227L55.6081 51.1116C55.6093 51.3324 55.6105 51.5446 55.5948 51.7498C55.575 52.0095 55.5289 52.2404 55.4314 52.4375C55.3356 52.6308 55.1903 52.7917 54.9654 52.9158C54.7376 53.0416 54.4109 53.1391 53.9344 53.1815L53.9236 53.1829C53.5956 53.2226 53.311 53.3043 53.1011 53.4257C52.8898 53.5479 52.737 53.7227 52.737 53.9358C52.737 54.2009 52.8812 54.4291 53.1566 54.5836C53.4209 54.7319 53.7831 54.8002 54.2043 54.8002L54.2167 54.7997C55.2259 54.7638 56.4154 54.7637 57.4335 54.7637C58.4524 54.7637 59.7606 54.764 60.7094 54.8H60.7225C61.1518 54.8 61.5215 54.7202 61.7927 54.5786C62.0643 54.4367 62.2497 54.2232 62.2497 53.972C62.2497 53.7631 62.1381 53.5779 61.9301 53.4393ZM54.2322 40.658C55.9885 41.6473 55.9243 43.9078 55.8876 45.2003L55.8876 45.2001C55.9243 43.9075 55.9886 41.6472 54.2322 40.658ZM71.6055 53.2349L71.6031 53.235C69.1963 53.2851 67.6244 51.9559 66.6162 50.3159C65.6107 48.6805 65.2118 46.8012 65.1269 45.9091C65.0417 45.015 65.0717 43.2642 65.7408 41.7332C66.0747 40.9691 66.5622 40.2728 67.258 39.7628C67.9483 39.2569 68.8551 38.9254 70.0577 38.8999C72.5543 38.8668 74.1402 40.2085 75.1392 41.8536C76.1362 43.4955 76.5071 45.3814 76.5927 46.2944C76.6494 47.1916 76.5903 48.9321 75.9077 50.4488C75.5667 51.2066 75.0758 51.8953 74.3819 52.3973C73.6935 52.8953 72.7939 53.2181 71.6055 53.2349ZM43.7397 31.96L43.7396 31.9773L43.7397 31.9604L43.7397 31.96ZM55.8794 51.1069C55.8791 51.0477 55.8787 50.9885 55.8787 50.9293C55.8787 50.9853 55.879 51.0413 55.8793 51.0973L55.8794 51.1069ZM92.9543 53.2349L92.952 53.235C90.5451 53.2851 88.9732 51.9559 87.965 50.3159C86.9595 48.6805 86.5607 46.8012 86.4757 45.9091C86.3905 45.015 86.4206 43.2643 87.0897 41.7332C87.4236 40.9691 87.911 40.2728 88.6069 39.7628C89.2971 39.2569 90.2039 38.9254 91.4066 38.8999C93.9031 38.8668 95.4891 40.2085 96.488 41.8536C97.485 43.4955 97.8559 45.3814 97.9416 46.2944C97.9982 47.1916 97.9391 48.9321 97.2565 50.4488C96.9155 51.2066 96.4247 51.8953 95.7308 52.3973C95.0423 52.8953 94.1427 53.2181 92.9543 53.2349ZM55.8876 45.2004C55.8855 45.2721 55.8836 45.3408 55.8821 45.4061C55.8836 45.3408 55.8856 45.2722 55.8876 45.2006L55.8876 45.2004ZM108.671 53.1828L108.665 53.1822C108.172 53.131 107.831 53.0267 107.592 52.8953C107.356 52.7655 107.205 52.601 107.106 52.4079C106.919 52.0426 106.921 51.5927 106.923 51.0933L106.923 51.0215L106.923 50.9293V30.9339C106.923 29.745 106.983 28.7729 107.102 27.6552L107.103 27.6464V27.6375C107.103 27.3387 106.815 27.1018 106.41 26.9747C106.261 26.91 106.074 26.8611 105.889 26.8319C105.697 26.8016 105.485 26.7891 105.294 26.8118C103.565 26.9989 101.305 27.8118 100.133 28.5202L100.121 28.5273L100.11 28.5355C99.3459 29.0324 100.159 29.8414 100.928 29.8408C101.698 29.8402 100.94 29.8414 100.94 29.8414C102.235 29.911 102.752 30.2336 102.985 30.6023C103.109 30.7985 103.167 31.0282 103.191 31.2855C103.209 31.4833 103.207 31.6845 103.205 31.893V31.8932L103.205 31.9968C103.204 32.0287 103.204 32.0607 103.204 32.093V50.9293C103.204 50.9808 103.204 51.0321 103.205 51.0833C103.207 51.5555 103.209 52.0077 103.021 52.3821C102.921 52.5811 102.768 52.7523 102.532 52.8872C102.293 53.0232 101.953 53.1311 101.462 53.182L101.452 53.1834C100.83 53.2669 100.387 53.5814 100.387 54.0083V54.0234L100.39 54.0384C100.479 54.5236 101.149 54.8002 101.917 54.8002L101.93 54.7997C102.941 54.7638 104.073 54.7637 105.094 54.7637C106.115 54.7637 107.366 54.764 108.317 54.8H108.33C108.667 54.8 109.015 54.7396 109.288 54.6184C109.56 54.4978 109.8 54.2944 109.8 54.0083C109.8 53.7884 109.695 53.5936 109.484 53.4467C109.281 53.3058 109 53.2226 108.671 53.1828ZM71.0908 54.8C74.7023 54.8 77.0885 53.2459 78.5592 51.3838C80.0239 49.5293 80.5985 47.3511 80.5985 46.0318C80.5985 44.5934 80.0993 42.4469 78.5988 40.6528C77.0886 38.8473 74.5679 37.4062 70.5713 37.4062C66.8756 37.4062 64.488 38.9493 63.0371 40.81C61.5931 42.6618 61.0636 44.8402 61.0636 46.1744C61.0636 47.597 61.5929 49.7432 63.1072 51.5406C64.6304 53.3486 67.1501 54.8 71.0908 54.8ZM92.4397 54.8C96.0512 54.8 98.4374 53.2459 99.9081 51.3838C101.373 49.5293 101.947 47.3511 101.947 46.0318C101.947 44.5934 101.448 42.4469 99.9476 40.6528C98.4375 38.8473 95.9168 37.4062 91.9201 37.4062C88.2244 37.4062 85.8369 38.9493 84.386 40.81C82.942 42.6618 82.4125 44.8402 82.4125 46.1744C82.4125 47.597 82.9417 49.7432 84.456 51.5406C85.9793 53.3486 88.4989 54.8 92.4397 54.8ZM39.1069 41.1246C39.1069 49.1573 33.4419 53.5696 23.2632 53.5696C19.3484 53.5696 17.5982 53.0417 17.5982 49.6853V30.452C17.5982 29.6977 18.3351 29.2829 19.1642 29.2452C20.3617 29.1321 22.2039 29.0943 23.4014 29.0943C32.4747 29.0943 39.1069 33.469 39.1069 41.1246Z" fill="white"/>
</svg>
