<svg width="105" height="123" viewBox="0 0 105 123" fill="none" xmlns="http://www.w3.org/2000/svg">
<path fill-rule="evenodd" clip-rule="evenodd" d="M66.8441 72.9574L57.6877 36.1609C66.5081 33.3153 83.1798 24.4646 79.3027 11.8263C74.4563 -3.97157 56.0399 -2.79409 46.8317 8.58821C43.1161 5.35016 33.4362 0.169267 24.4413 5.35016C18.8195 8.58821 19.1102 13.2 19.5949 15.4569C13.2299 13.2327 0.5 12.6898 0.5 28.311C0.5 47.8376 33.8433 44.6976 41.9853 39.6933L53.307 75.5928C46.924 78.2637 41.842 82.7839 39.0679 88.3124C36.2179 86.7143 32.1816 85.7002 30.2046 89.5779C27.6836 94.5226 32.7184 99.0783 36.8778 100.295C38.2768 113.028 51.0954 123 66.702 123C82.6758 123 95.7289 112.553 96.6059 99.3915C100.777 98.2024 105.874 93.626 103.341 88.6568C101.251 84.5575 96.8595 85.9251 94.0011 87.6703C89.3176 79.0274 78.926 73.0043 66.8441 72.9574ZM67.6915 85.8327C67.5727 85.2489 67.9439 84.6781 68.5207 84.5579C69.0974 84.4376 69.6613 84.8134 69.7801 85.3973C69.9546 86.2552 70.3191 87.6414 71.0976 88.8259C71.854 89.9766 72.9676 90.8985 74.7178 91.0141C75.9417 91.0949 76.805 90.472 77.4473 89.4491C78.1106 88.3927 78.4471 87.0215 78.5291 86.0167C78.5777 85.4226 79.0927 84.9808 79.6796 85.03C80.2664 85.0791 80.7028 85.6005 80.6543 86.1946C80.5525 87.4407 80.1453 89.1764 79.2469 90.6072C78.3275 92.0714 76.811 93.3157 74.579 93.1682C72.0092 92.9985 70.3503 91.5858 69.3223 90.0217C68.3164 88.4912 67.8846 86.7819 67.6915 85.8327ZM53.7876 84.4597C53.2109 84.58 52.8396 85.1508 52.9584 85.7346C53.1515 86.6838 53.5833 88.3931 54.5892 89.9235C55.6172 91.4877 57.2761 92.9004 59.8459 93.0701C62.078 93.2175 63.5944 91.9732 64.5138 90.509C65.4122 89.0783 65.8195 87.3426 65.9212 86.0964C65.9697 85.5024 65.5333 84.9809 64.9465 84.9318C64.3596 84.8827 63.8446 85.3245 63.7961 85.9186C63.714 86.9234 63.3776 88.2946 62.7142 89.351C62.0719 90.3738 61.2086 90.9968 59.9847 90.916C58.2345 90.8004 57.1209 89.8785 56.3645 88.7277C55.586 87.5432 55.2215 86.1571 55.047 85.2992C54.9282 84.7153 54.3643 84.3395 53.7876 84.4597ZM54.8981 92.1919C54.3106 92.2332 53.8675 92.7487 53.9083 93.3434C53.9189 93.4978 53.9252 93.6645 53.9264 93.841C53.9151 93.8985 53.9083 93.9577 53.9063 94.0181C53.8998 94.2198 53.8971 94.4294 53.8986 94.6461C53.8329 95.5269 53.6453 96.5302 53.2653 97.4407C52.6893 98.8206 51.7301 99.8793 50.1409 100.152C49.5604 100.252 49.1696 100.81 49.2682 101.397C49.3668 101.985 49.9173 102.381 50.4979 102.281C52.415 101.951 53.7116 100.867 54.5584 99.562C54.9559 101.102 55.5565 102.7 56.4218 104.211C58.4753 107.798 62.0188 110.883 67.7482 111.513C70.5994 111.827 72.9396 111.378 74.8265 110.373C76.7105 109.369 78.0666 107.852 79.0191 106.153C80.9039 102.79 81.2624 98.6263 81.0423 95.8322C80.9955 95.2379 80.4817 94.7946 79.8947 94.842C79.3077 94.8894 78.8698 95.4096 78.9166 96.0038C79.1165 98.541 78.7674 102.227 77.1644 105.087C76.373 106.499 75.2902 107.686 73.8335 108.462C72.3799 109.237 70.4778 109.642 67.9786 109.367C63.0071 108.82 60.0241 106.198 58.2667 103.128C56.6345 100.278 56.0599 97.0291 56.0316 94.7125C56.0692 94.1503 56.0657 93.6328 56.0356 93.1939C55.9948 92.5992 55.4855 92.1506 54.8981 92.1919Z" fill="#F9F9F9"/>
</svg>
