<svg width="422" height="422" viewBox="0 0 422 422" fill="none" xmlns="http://www.w3.org/2000/svg">
<g clip-path="url(#clip0_350_10552)">
<rect width="422" height="422" fill="white"/>
<circle cx="87.1765" cy="214.05" r="57.1921" fill="black"/>
<circle cx="149.921" cy="150.194" r="72.1842" fill="black"/>
<circle cx="252.089" cy="235.705" r="72.1842" fill="black"/>
<circle cx="258.753" cy="156.857" r="78.8474" fill="black"/>
<circle cx="323.718" cy="204.055" r="67.1868" fill="black"/>
<path d="M71.074 251.252L125.49 179.068L267.082 156.302L318.721 170.739L346.485 251.252L357.59 454.547H59.9688L71.074 251.252Z" fill="black"/>
<path d="M172.722 307.889C139.619 307.889 121.048 284.275 121.048 273.463H216.553C216.553 280.491 199.204 307.889 172.722 307.889Z" fill="white"/>
<path d="M284.885 307.889C251.782 307.889 233.211 284.275 233.211 273.463H328.716C328.716 280.491 311.368 307.889 284.885 307.889Z" fill="white"/>
<path d="M190.705 290.12C174.538 290.12 165.469 277.171 165.469 271.241H212.111C212.111 275.095 203.638 290.12 190.705 290.12Z" fill="black"/>
<path d="M302.867 290.12C286.7 290.12 277.631 277.171 277.631 271.241H324.273C324.273 275.095 315.8 290.12 302.867 290.12Z" fill="black"/>
</g>
<defs>
<clipPath id="clip0_350_10552">
<rect width="422" height="422" fill="white"/>
</clipPath>
</defs>
</svg>
