<svg width="123" height="123" viewBox="0 0 123 123" fill="none" xmlns="http://www.w3.org/2000/svg">
<path d="M123 123H0V0H123V123ZM5.30957 117.69H21.2373V101.762H10.6182V91.1436H5.30957V117.69ZM31.375 101.762C29.5184 101.762 28.1838 102.372 27.3398 103.749V101.812H22.1221V117.69H27.6006V109.382C27.6006 107.676 28.521 107.129 30.04 107.129C30.9145 107.129 31.8045 107.316 32.4336 107.488L32.7412 101.918C32.5264 101.871 31.9735 101.762 31.375 101.762ZM34.0352 117.69H39.4404V101.762H34.0352V117.69ZM40.7051 91.1436V117.69H46.0146V112.381H51.3232V107.071H46.0146V91.1436H40.7051ZM51.3232 112.381V117.69H56.6328V112.381H51.3232ZM15.9277 112.381H10.6182V107.071H15.9277V112.381ZM51.3232 101.762V107.071H56.6328V101.762H51.3232ZM36.7227 94.6826C34.9768 94.6827 33.626 96.0621 33.626 97.8438C33.6262 99.6252 34.9769 101.004 36.7227 101.004C38.4685 101.004 39.8201 99.6253 39.8203 97.8438C39.8203 96.062 38.4686 94.6826 36.7227 94.6826Z" fill="white"/>
</svg>
