<svg width="104" height="123" viewBox="0 0 104 123" fill="none" xmlns="http://www.w3.org/2000/svg">
<path fill-rule="evenodd" clip-rule="evenodd" d="M66.3441 72.9574L57.1877 36.1609C66.0081 33.3153 82.6798 24.4646 78.8027 11.8263C73.9563 -3.97157 55.5399 -2.79409 46.3317 8.58821C42.6161 5.35016 32.9362 0.169267 23.9413 5.35016C18.3195 8.58821 18.6102 13.2 19.0949 15.4569C12.7299 13.2327 0 12.6898 0 28.311C0 47.8376 33.3433 44.6976 41.4853 39.6933L52.807 75.5928C46.424 78.2637 41.342 82.7839 38.5679 88.3124C35.7179 86.7143 31.6816 85.7002 29.7046 89.5779C27.1836 94.5226 32.2184 99.0783 36.3778 100.295C37.7768 113.028 50.5954 123 66.202 123C82.1758 123 95.2289 112.553 96.1059 99.3915C100.277 98.2024 105.374 93.626 102.841 88.6568C100.751 84.5575 96.3595 85.9251 93.5011 87.6703C88.8176 79.0274 78.426 73.0043 66.3441 72.9574ZM67.1915 85.8327C67.0727 85.2489 67.4439 84.6781 68.0207 84.5579C68.5974 84.4376 69.1613 84.8134 69.2801 85.3973C69.4546 86.2552 69.8191 87.6414 70.5976 88.8259C71.354 89.9766 72.4676 90.8985 74.2178 91.0141C75.4417 91.0949 76.305 90.472 76.9473 89.4491C77.6106 88.3927 77.9471 87.0215 78.0291 86.0167C78.0777 85.4226 78.5927 84.9808 79.1796 85.03C79.7664 85.0791 80.2028 85.6005 80.1543 86.1946C80.0525 87.4407 79.6453 89.1764 78.7469 90.6072C77.8275 92.0714 76.311 93.3157 74.079 93.1682C71.5092 92.9985 69.8503 91.5858 68.8223 90.0217C67.8164 88.4912 67.3846 86.7819 67.1915 85.8327ZM53.2876 84.4597C52.7109 84.58 52.3396 85.1508 52.4584 85.7346C52.6515 86.6838 53.0833 88.3931 54.0892 89.9235C55.1172 91.4877 56.7761 92.9004 59.3459 93.0701C61.578 93.2175 63.0944 91.9732 64.0138 90.509C64.9122 89.0783 65.3195 87.3426 65.4212 86.0964C65.4697 85.5024 65.0333 84.9809 64.4465 84.9318C63.8596 84.8827 63.3446 85.3245 63.2961 85.9186C63.214 86.9234 62.8776 88.2946 62.2142 89.351C61.5719 90.3738 60.7086 90.9968 59.4847 90.916C57.7345 90.8004 56.6209 89.8785 55.8645 88.7277C55.086 87.5432 54.7215 86.1571 54.547 85.2992C54.4282 84.7153 53.8643 84.3395 53.2876 84.4597ZM54.3981 92.1919C53.8106 92.2332 53.3675 92.7487 53.4083 93.3434C53.4189 93.4978 53.4252 93.6645 53.4264 93.841C53.4151 93.8985 53.4083 93.9577 53.4063 94.0181C53.3998 94.2198 53.3971 94.4294 53.3986 94.6461C53.3329 95.5269 53.1453 96.5302 52.7653 97.4407C52.1893 98.8206 51.2301 99.8793 49.6409 100.152C49.0604 100.252 48.6696 100.81 48.7682 101.397C48.8668 101.985 49.4173 102.381 49.9979 102.281C51.915 101.951 53.2116 100.867 54.0584 99.562C54.4559 101.102 55.0565 102.7 55.9218 104.211C57.9753 107.798 61.5188 110.883 67.2482 111.513C70.0994 111.827 72.4396 111.378 74.3265 110.373C76.2105 109.369 77.5666 107.852 78.5191 106.153C80.4039 102.79 80.7624 98.6263 80.5423 95.8322C80.4955 95.2379 79.9817 94.7946 79.3947 94.842C78.8077 94.8894 78.3698 95.4096 78.4166 96.0038C78.6165 98.541 78.2674 102.227 76.6644 105.087C75.873 106.499 74.7902 107.686 73.3335 108.462C71.8799 109.237 69.9778 109.642 67.4786 109.367C62.5071 108.82 59.5241 106.198 57.7667 103.128C56.1345 100.278 55.5599 97.0291 55.5316 94.7125C55.5692 94.1503 55.5657 93.6328 55.5356 93.1939C55.4948 92.5992 54.9855 92.1506 54.3981 92.1919Z" fill="#F9F9F9"/>
</svg>
